<svg width="22" height="23" viewBox="0 0 22 23" fill="none" xmlns="http://www.w3.org/2000/svg">
<path fill-rule="evenodd" clip-rule="evenodd" d="M9.75 0C4.36522 0 0 4.36522 0 9.75C0 15.1348 4.36522 19.5 9.75 19.5C11.9167 19.5 13.9184 18.7932 15.537 17.5976L15.7197 17.7803L20.2197 22.2803L20.75 22.8107L21.8107 21.75L21.2803 21.2197L16.7803 16.7197L16.6746 16.6139C18.4212 14.8519 19.5 12.427 19.5 9.75C19.5 4.36522 15.1348 0 9.75 0ZM1.5 9.75C1.5 5.19365 5.19365 1.5 9.75 1.5C14.3063 1.5 18 5.19365 18 9.75C18 14.3063 14.3063 18 9.75 18C5.19365 18 1.5 14.3063 1.5 9.75Z" fill="black"/>
</svg>
