<svg width="23" height="23" viewBox="0 0 23 23" fill="none" xmlns="http://www.w3.org/2000/svg">
<path d="M17.1176 20.3725L17.3547 19.661C17.1408 19.5897 16.9062 19.6184 16.7158 19.7392L17.1176 20.3725ZM20.3725 17.1175L19.7392 16.7157C19.6184 16.9061 19.5897 17.1408 19.661 17.3547L20.3725 17.1175ZM22 22L21.7628 22.7115C22.0323 22.8013 22.3295 22.7312 22.5303 22.5303C22.7312 22.3294 22.8013 22.0323 22.7115 21.7628L22 22ZM11.5 22.75C13.7127 22.75 15.7783 22.1104 17.5194 21.0058L16.7158 19.7392C15.2079 20.6959 13.4198 21.25 11.5 21.25V22.75ZM0.25 11.5C0.25 17.7132 5.2868 22.75 11.5 22.75V21.25C6.11522 21.25 1.75 16.8848 1.75 11.5H0.25ZM11.5 0.25C5.2868 0.25 0.25 5.2868 0.25 11.5H1.75C1.75 6.11522 6.11522 1.75 11.5 1.75V0.25ZM22.75 11.5C22.75 5.2868 17.7132 0.25 11.5 0.25V1.75C16.8848 1.75 21.25 6.11522 21.25 11.5H22.75ZM21.0058 17.5193C22.1104 15.7783 22.75 13.7127 22.75 11.5H21.25C21.25 13.4198 20.6959 15.2079 19.7392 16.7157L21.0058 17.5193ZM19.661 17.3547L21.2885 22.2371L22.7115 21.7628L21.084 16.8804L19.661 17.3547ZM22.2372 21.2885L17.3547 19.661L16.8804 21.084L21.7628 22.7115L22.2372 21.2885Z" fill="black"/>
</svg>
