<svg width="24" height="24" viewBox="0 0 24 24" fill="none" xmlns="http://www.w3.org/2000/svg">
<path d="M1.32733 10.351L1.83183 10.9059L1.83183 10.9059L1.32733 10.351ZM9.38095 22.6485V23.3985H10.131V22.6485H9.38095ZM14.619 22.6485H13.869V23.3985H14.619V22.6485ZM22.6727 10.351L22.1682 10.9059L22.1682 10.9059L22.6727 10.351ZM12.6727 1.26006L13.1772 0.705105V0.705104L12.6727 1.26006ZM11.3273 1.26006L11.8318 1.81501L11.8318 1.81501L11.3273 1.26006ZM1.75 11.0909C1.75 11.0205 1.77971 10.9533 1.83183 10.9059L0.822823 9.79601C0.457993 10.1277 0.25 10.5979 0.25 11.0909H1.75ZM1.75 21.6485V11.0909H0.25V21.6485H1.75ZM2 21.8985C1.86193 21.8985 1.75 21.7866 1.75 21.6485H0.25C0.25 22.615 1.0335 23.3985 2 23.3985V21.8985ZM9.38095 21.8985H2V23.3985H9.38095V21.8985ZM10.131 22.6485V16.2676H8.63095V22.6485H10.131ZM10.131 16.2676C10.131 15.2353 10.9678 14.3985 12 14.3985V12.8985C10.1393 12.8985 8.63095 14.4069 8.63095 16.2676H10.131ZM12 14.3985C13.0322 14.3985 13.869 15.2353 13.869 16.2676H15.369C15.369 14.4069 13.8607 12.8985 12 12.8985V14.3985ZM13.869 16.2676V22.6485H15.369V16.2676H13.869ZM22 21.8985H14.619V23.3985H22V21.8985ZM22.25 21.6485C22.25 21.7866 22.1381 21.8985 22 21.8985V23.3985C22.9665 23.3985 23.75 22.615 23.75 21.6485H22.25ZM22.25 11.0909V21.6485H23.75V11.0909H22.25ZM22.1682 10.9059C22.2203 10.9533 22.25 11.0205 22.25 11.0909H23.75C23.75 10.5979 23.542 10.1277 23.1772 9.79601L22.1682 10.9059ZM12.1682 1.81501L22.1682 10.9059L23.1772 9.79601L13.1772 0.705105L12.1682 1.81501ZM11.8318 1.81501C11.9272 1.72833 12.0728 1.72833 12.1682 1.81502L13.1772 0.705104C12.5097 0.0982983 11.4903 0.0982983 10.8228 0.705105L11.8318 1.81501ZM1.83183 10.9059L11.8318 1.81501L10.8228 0.705105L0.822823 9.79601L1.83183 10.9059Z" fill="black"/>
</svg>
