<svg width="25" height="24" viewBox="0 0 25 24" fill="none" xmlns="http://www.w3.org/2000/svg">
<path fill-rule="evenodd" clip-rule="evenodd" d="M15.7325 1.5H18.6054C21.0068 1.5 22.9689 3.381 23.0986 5.75H18.0506L15.7325 1.5ZM14.0238 1.5H8.73245L11.0506 5.75H16.342L14.0238 1.5ZM9.342 5.75L7.02382 1.5H6.60541C4.20402 1.5 2.24196 3.381 2.11223 5.75H9.342ZM0.605408 7.25V6V5.75H0.610522C0.741586 2.55223 3.37544 0 6.60541 0H18.6054C21.8354 0 24.4692 2.55223 24.6003 5.75H24.6054V6V7.25V18C24.6054 21.3137 21.9191 24 18.6054 24H6.60541C3.2917 24 0.605408 21.3137 0.605408 18V7.25ZM23.1054 7.25V18C23.1054 20.4853 21.0907 22.5 18.6054 22.5H6.60541C4.12013 22.5 2.10541 20.4853 2.10541 18V7.25H23.1054ZM9.26227 11.1734C9.26227 10.4169 10.0698 9.9344 10.736 10.2928L16.282 13.2762C16.9837 13.6536 16.9837 14.6601 16.282 15.0375L10.736 18.0209C10.0698 18.3793 9.26227 17.8968 9.26227 17.1403L9.26227 11.1734Z" fill="black"/>
</svg>
