<svg width="25" height="21" viewBox="0 0 25 21" fill="none" xmlns="http://www.w3.org/2000/svg">
<path fill-rule="evenodd" clip-rule="evenodd" d="M7.20808 4.5H8L8.44669 3.84608L9.90037 1.71797C9.99354 1.58158 10.1481 1.5 10.3132 1.5H15.6863C15.8524 1.5 16.0077 1.58252 16.1007 1.7202L17.5316 3.83939L17.9777 4.5H18.7748H20.9964C22.3771 4.5 23.4964 5.61929 23.4964 7V17C23.4964 18.3807 22.3771 19.5 20.9964 19.5H4.99637C3.61566 19.5 2.49637 18.3807 2.49637 17V7C2.49637 5.61929 3.61566 4.5 4.99637 4.5H7.20808ZM10.3132 0C9.65252 0 9.03444 0.326316 8.66176 0.871896L7.20808 3H4.99637C2.78723 3 0.996368 4.79086 0.996368 7V17C0.996368 19.2091 2.78723 21 4.99637 21H20.9964C23.2055 21 24.9964 19.2091 24.9964 17V7C24.9964 4.79086 23.2055 3 20.9964 3H18.7748L17.3438 0.880809C16.972 0.330069 16.3508 0 15.6863 0H10.3132ZM17.4964 12C17.4964 14.4853 15.4816 16.5 12.9964 16.5C10.5111 16.5 8.49637 14.4853 8.49637 12C8.49637 9.51472 10.5111 7.5 12.9964 7.5C15.4816 7.5 17.4964 9.51472 17.4964 12ZM12.9964 18C16.3101 18 18.9964 15.3137 18.9964 12C18.9964 8.68629 16.3101 6 12.9964 6C9.68266 6 6.99637 8.68629 6.99637 12C6.99637 15.3137 9.68266 18 12.9964 18Z" fill="black"/>
</svg>
