<svg width="24" height="24" viewBox="0 0 24 24" fill="none" xmlns="http://www.w3.org/2000/svg">
<path d="M19.875 2H4.125C3.50625 2 3 2.44939 3 3.00481V22.4648C3 23.0202 3.36563 23.1616 3.82125 22.7728L11.5444 16.1986C11.7244 16.0471 12.0225 16.0471 12.2025 16.1936L20.1731 22.7879C20.6287 23.1666 21 23.0202 21 22.4648V3.00481C21 2.44939 20.4994 2 19.875 2ZM19.3125 20.0209L13.3444 15.0827C12.9281 14.7394 12.405 14.5677 11.8763 14.5677C11.3363 14.5677 10.8019 14.7444 10.3856 15.0979L4.6875 19.9502V3.51479H19.3125V20.0209Z" fill="black" stroke="black" stroke-width="0.7"/>
</svg>
